<?xml version="1.0" encoding="utf-8"?>

<!-- Uploaded to: SVG Repo, www.svgrepo.com, Generator: SVG Repo Mixer Tools -->
<svg version="1.1" id="Icons" xmlns="http://www.w3.org/2000/svg" xmlns:xlink="http://www.w3.org/1999/xlink" 
	 viewBox="0 0 32 32" xml:space="preserve">
<style type="text/css">
	.st0{fill:none;stroke:#000000;stroke-width:2;stroke-linecap:round;stroke-linejoin:round;stroke-miterlimit:10;}
</style>
<path d="M19,24c-0.6,0-1,0.4-1,1v2c0,0.6-0.4,1-1,1H7c-0.6,0-1-0.4-1-1V5c0-0.6,0.4-1,1-1h1v0.3C8,5.8,9.2,7,10.7,7h2.6
	C14.8,7,16,5.8,16,4.3V4h1c0.6,0,1,0.4,1,1v2c0,0.6,0.4,1,1,1s1-0.4,1-1V5c0-1.7-1.3-3-3-3H7C5.3,2,4,3.3,4,5v22c0,1.7,1.3,3,3,3h10
	c1.7,0,3-1.3,3-3v-2C20,24.4,19.6,24,19,24z"/>
<path d="M27,12h-1c0-2.2-1.8-4-4-4s-4,1.8-4,4h-1c-0.6,0-1,0.4-1,1v8c0,0.6,0.4,1,1,1h10c0.6,0,1-0.4,1-1v-8C28,12.4,27.6,12,27,12z
	 M23,18c0,0.6-0.4,1-1,1s-1-0.4-1-1v-2c0-0.6,0.4-1,1-1s1,0.4,1,1V18z M20,12c0-1.1,0.9-2,2-2s2,0.9,2,2H20z"/>
<path d="M9,24c-0.6,0-1,0.4-1,1s0.4,1,1,1h6c0.6,0,1-0.4,1-1s-0.4-1-1-1H9z"/>
</svg>